<svg width="456" height="305" viewBox="0 0 456 305" fill="none" xmlns="http://www.w3.org/2000/svg">
<rect width="303.521" height="224.83" rx="17.9864" transform="matrix(0.83205 0.5547 -0.830139 0.557556 195.041 11.2422)" fill="#071B45" fill-opacity="0.06" stroke="#6F93CF" stroke-opacity="0.7" stroke-width="2.2483"/>
<rect width="303.521" height="224.83" rx="17.9864" transform="matrix(0.83205 0.5547 -0.830139 0.557556 195.041 0)" fill="#071B45" fill-opacity="0.06" stroke="#6F93CF" stroke-opacity="0.7" stroke-width="2.2483"/>
<circle cx="6.74491" cy="6.74491" r="6.46387" transform="matrix(0.83205 0.5547 -0.830139 0.557556 398.514 155.633)" fill="#071B45" fill-opacity="0.06" stroke="#6F93CF" stroke-opacity="0.7" stroke-width="0.562076"/>
<circle cx="44.9661" cy="44.9661" r="44.9661" transform="matrix(0.83205 0.5547 -0.830139 0.557556 120.904 80.4648)" fill="#071B45" fill-opacity="0.06" stroke="#6F93CF" stroke-opacity="0.7" stroke-width="0.562076"/>
<circle cx="33.7246" cy="33.7246" r="33.7246" transform="matrix(0.83205 0.5547 -0.830139 0.557556 120.924 92.9688)" fill="#071B45" fill-opacity="0.06" stroke="#6F93CF" stroke-opacity="0.7" stroke-width="0.562076"/>
<rect x="0.000537093" y="0.312586" width="78.6907" height="7.86906" rx="3.93453" transform="matrix(0.83205 0.5547 -0.830139 0.557556 193.705 159.56)" fill="#071B45" fill-opacity="0.06" stroke="#6F93CF" stroke-opacity="0.7" stroke-width="0.562076"/>
<rect x="0.000537093" y="0.312586" width="133.212" height="7.86906" rx="3.93453" transform="matrix(0.83205 0.5547 -0.830139 0.557556 182.972 166.767)" fill="#071B45" fill-opacity="0.06" stroke="#6F93CF" stroke-opacity="0.7" stroke-width="0.562076"/>
<rect x="0.000537093" y="0.312586" width="124.781" height="7.86906" rx="3.93453" transform="matrix(0.83205 0.5547 -0.830139 0.557556 172.242 173.978)" fill="#071B45" fill-opacity="0.06" stroke="#6F93CF" stroke-opacity="0.7" stroke-width="0.562076"/>
<rect width="67.4491" height="67.4491" rx="17.9864" transform="matrix(0.83205 0.5547 -0.830139 0.557556 238.072 75.8828)" fill="#071B45" fill-opacity="0.06" stroke="#6F93CF" stroke-opacity="0.7" stroke-width="2.2483"/>
<rect width="67.4491" height="67.4491" rx="17.9864" transform="matrix(0.83205 0.5547 -0.830139 0.557556 238.074 61.8281)" fill="#071B45" fill-opacity="0.06" stroke="#6F93CF" stroke-opacity="0.7" stroke-width="2.2483"/>
<rect width="67.4491" height="67.4491" rx="17.9864" transform="matrix(0.83205 0.5547 -0.830139 0.557556 238.074 47.7773)" fill="#071B45" fill-opacity="0.06" stroke="#6F93CF" stroke-opacity="0.7" stroke-width="2.2483"/>
</svg>
